<?xml version="1.0" encoding="utf-8"?>
<!-- Svg Vector Icons : http://www.onlinewebfonts.com/icon -->
<!DOCTYPE svg PUBLIC "-//W3C//DTD SVG 1.1//EN" "http://www.w3.org/Graphics/SVG/1.1/DTD/svg11.dtd">
<svg version="1.1" xmlns="http://www.w3.org/2000/svg" xmlns:xlink="http://www.w3.org/1999/xlink" x="0px" y="0px" viewBox="0 0 256 256" enable-background="new 0 0 256 256" xml:space="preserve">
<metadata> Svg Vector Icons : http://www.onlinewebfonts.com/icon </metadata>
<g><g><path fill="#000000" d="M172.1,110.7c5.3,0,9.6,4.3,9.6,9.6c0,5.3-4.3,9.6-9.6,9.6c-5.3,0-9.6-4.3-9.6-9.6C162.5,115,166.8,110.7,172.1,110.7z"/><path fill="#000000" d="M188,94.6l-8.4-31.3c-1-3.8-2.9-6.8-5.5-8.8c-2.9-2.2-6.5-2.9-10.3-1.9L76.8,76c-3.7,1-6.8,3.4-8.7,6.7s-2.4,7.2-1.4,10.9l0.5,1.8c-5.3,2.1-9.1,7.3-9.1,13.4v71c0,7.5,5.8,12.5,14.4,12.5h111.3c8.6,0,14.4-5,14.4-12.5v-71C198,101.2,194.1,95.8,188,94.6L188,94.6z M73,85.6c1.2-2,3-3.4,5.2-4l87.1-23.3c2-0.6,3.8-0.2,5.3,0.9c1.5,1.2,2.7,3.2,3.4,5.7l7.9,29.6H72.7l-0.6-2.3C71.5,90,71.8,87.6,73,85.6L73,85.6z M192.3,165.7l-37.4-24.3l-23,21.1l36.1,24h-9.8l-62.8-41.2l-31.6,29.8v-66.3c0-3.4,2-6.4,4.9-7.8l2.9-0.8c0.3,0,0.5-0.1,0.8-0.1h113.2c6.2,0,6.7,6.6,6.7,8.6V165.7L192.3,165.7z"/><path fill="#000000" d="M128,246c-78.3,0-118-39.7-118-118S49.7,10,128,10c78.3,0,118,39.7,118,118C246,206.3,206.3,246,128,246z M128,15.8c-37.4,0-65.8,9.4-84.3,27.9C25.1,62.3,15.8,90.6,15.8,128c0,37.4,9.4,65.7,27.9,84.3c18.5,18.5,46.9,27.9,84.3,27.9c37.4,0,65.8-9.4,84.3-27.9c18.5-18.5,27.9-46.9,27.9-84.3c0-37.4-9.4-65.7-27.9-84.3C193.8,25.2,165.4,15.8,128,15.8L128,15.8z"/></g></g>
</svg>